<?xml version="1.0" encoding="UTF-8"?>
<svg id="Layer_2" data-name="Layer 2" xmlns="http://www.w3.org/2000/svg" viewBox="0 0 323.04 62.43">
  <defs>
    <style>
      .cls-1 {
        fill: #1b264f;
      }

      .cls-2 {
        fill: #ff7f00;
      }
    </style>
  </defs>
  <g id="Swatch_Info_Layer" data-name="Swatch Info Layer">
    <g>
      <g>
        <path class="cls-1" d="M23.54.51v37.02h8.93V.51h-8.93ZM8.95.51H0v37.02h8.95v-14.88h11.35v-7.28h-11.35V.51Z"/>
        <path class="cls-1" d="M64.47,7.77V.51h-25.82v37.02h25.82v-7.27h-16.87v-7.61h15.55v-7.28h-15.55v-7.6h16.87Z"/>
        <path class="cls-1" d="M70.65.51v37.02h8.95V.51h-8.95Z"/>
        <path class="cls-1" d="M114.11,22.78c-.49-1.19-1.22-2.25-2.18-3.16-.95-.92-2.14-1.71-3.54-2.37-1.4-.67-3.02-1.19-4.85-1.59l-3.19-.73c-.84-.18-1.6-.39-2.27-.63-.68-.24-1.25-.52-1.73-.84s-.84-.69-1.08-1.11c-.25-.42-.36-.91-.34-1.47,0-.67.21-1.27.6-1.79.38-.53.96-.94,1.73-1.24.77-.3,1.74-.45,2.9-.45,1.74,0,3.09.37,4.04,1.11.94.74,1.48,1.77,1.6,3.1h8.56c-.02-2.3-.62-4.33-1.78-6.08-1.17-1.74-2.82-3.1-4.93-4.07-2.12-.97-4.61-1.46-7.48-1.46s-5.31.48-7.5,1.45c-2.19.96-3.91,2.31-5.15,4.03-1.24,1.72-1.86,3.73-1.84,6.02-.02,2.81.9,5.03,2.74,6.68,1.85,1.64,4.37,2.83,7.58,3.57l3.87.9c1.35.32,2.46.66,3.33,1.02.88.37,1.52.81,1.95,1.31.42.5.63,1.1.65,1.8-.02.74-.25,1.41-.71,1.98-.46.58-1.11,1.03-1.96,1.36-.85.32-1.88.49-3.08.49-1.32,0-2.47-.21-3.46-.62-1-.41-1.78-1.01-2.35-1.8-.56-.8-.88-1.79-.95-2.99h-8.57c.03,2.89.69,5.29,1.97,7.18,1.27,1.89,3.06,3.3,5.37,4.23,2.3.93,5,1.39,8.1,1.39s5.72-.44,7.9-1.34c2.19-.89,3.87-2.17,5.04-3.85,1.17-1.67,1.76-3.68,1.77-6.02-.01-1.48-.26-2.82-.76-4.01Z"/>
        <path class="cls-1" d="M145.8,7.77V.51h-25.81v37.02h25.81v-7.27h-16.86v-7.61h15.54v-7.28h-15.54v-7.6h16.86Z"/>
        <path class="cls-1" d="M174.57.51v21.33h-.31L159.69.51h-7.7v37.02h8.94v-21.37h.24l14.73,21.37h7.6V.51h-8.93Z"/>
        <path class="cls-1" d="M218.03,22.54c-.78-1.31-1.8-2.33-3.07-3.07-1.27-.73-2.65-1.14-4.15-1.21v-.36c1.36-.29,2.56-.8,3.6-1.52s1.85-1.64,2.44-2.74c.59-1.1.89-2.36.89-3.77,0-1.85-.48-3.49-1.42-4.9-.95-1.41-2.36-2.5-4.23-3.29-1.88-.78-4.2-1.17-6.97-1.17h-15.44v37.02h16.61c2.74,0,5.06-.45,6.98-1.34,1.92-.9,3.38-2.13,4.39-3.69,1.02-1.56,1.52-3.34,1.52-5.33,0-1.78-.38-3.33-1.15-4.63ZM198.63,7.61h5.1c1.49,0,2.68.36,3.56,1.07.88.71,1.32,1.69,1.32,2.93,0,.87-.22,1.61-.65,2.22-.42.62-1.02,1.09-1.78,1.41-.76.33-1.62.49-2.6.49h-4.95V7.61ZM208.45,29.22c-.92.73-2.35,1.1-4.29,1.1h-5.53v-8.82h5.69c1.15,0,2.13.19,2.95.57s1.45.91,1.9,1.6c.44.7.67,1.52.67,2.47,0,1.32-.47,2.34-1.39,3.08Z"/>
        <path class="cls-1" d="M249.88,7.77V.51h-25.82v37.02h25.82v-7.27h-16.87v-7.61h15.55v-7.28h-15.55v-7.6h16.87Z"/>
        <path class="cls-1" d="M278.45,23.44l-1.54-2.83h-9.59l2.27,4.25,6.77,12.67h9.77l-7.68-14.09ZM283.22,6.27c-1.1-1.85-2.66-3.28-4.68-4.27-2.02-1-4.41-1.49-7.18-1.49h-15.3v37.02h8.95v-12.67h6.07c2.82,0,5.27-.47,7.33-1.4.01-.01.03-.01.04-.02,2.04-.94,3.62-2.29,4.73-4.07,1.12-1.79,1.68-3.97,1.68-6.53s-.55-4.72-1.64-6.57ZM265.01,7.72h4.41c1.34,0,2.47.19,3.38.57.92.38,1.61.95,2.08,1.7.47.75.71,1.7.71,2.85s-.24,2.08-.71,2.81c-.47.73-1.16,1.27-2.07,1.62-.91.36-2.04.54-3.39.54h-4.41V7.72Z"/>
        <path class="cls-1" d="M307.08,17.28v6.53h7.34c-.03,1.26-.32,2.35-.89,3.29-.59.99-1.45,1.75-2.59,2.29-1.14.53-2.53.8-4.17.8-1.85,0-3.43-.44-4.73-1.32s-2.3-2.15-2.99-3.83c-.68-1.68-1.03-3.7-1.03-6.07s.36-4.38,1.07-6.03c.71-1.66,1.72-2.92,3.03-3.79,1.31-.87,2.86-1.3,4.65-1.3.9,0,1.71.1,2.46.31.75.21,1.41.53,1.99.93.58.41,1.07.91,1.47,1.5.39.58.69,1.25.9,2.01h9.06c-.22-1.84-.78-3.54-1.67-5.08-.89-1.54-2.05-2.87-3.48-3.99-1.43-1.12-3.06-1.99-4.91-2.61-1.85-.61-3.85-.92-6-.92-2.47,0-4.77.42-6.91,1.27-2.14.84-4.02,2.08-5.64,3.72-1.62,1.64-2.89,3.64-3.79,5.99-.9,2.36-1.36,5.06-1.36,8.09,0,3.91.75,7.28,2.25,10.12,1.49,2.84,3.58,5.02,6.25,6.55,2.68,1.53,5.78,2.3,9.31,2.3,3.18,0,6-.64,8.45-1.9,2.45-1.27,4.38-3.08,5.79-5.44,1.4-2.36,2.1-5.2,2.1-8.52v-4.9h-15.96Z"/>
      </g>
      <g>
        <path d="M.04,62.21v-12.34h7.45v1.33H1.53v4.17h5.57v1.33H1.53v4.19h6.05v1.33H.04Z"/>
        <path d="M22.74,49.87v12.34h-1.45l-6.73-9.69h-.12v9.69h-1.49v-12.34h1.45l6.75,9.71h.12v-9.71h1.47Z"/>
        <path d="M28.5,62.21v-12.34h7.45v1.33h-5.95v4.17h5.57v1.33h-5.57v4.19h6.05v1.33h-7.54Z"/>
        <path d="M41.42,62.21v-12.34h4.17c.96,0,1.76.16,2.37.49s1.08.78,1.37,1.35c.3.57.45,1.22.45,1.95s-.15,1.37-.45,1.93c-.3.56-.75,1-1.37,1.32s-1.4.48-2.36.48h-3.37v-1.35h3.33c.66,0,1.19-.1,1.59-.29.4-.19.7-.47.88-.82.18-.36.27-.78.27-1.28s-.09-.93-.28-1.29-.48-.66-.89-.86c-.41-.2-.94-.3-1.61-.3h-2.63v11.02h-1.49ZM47.23,56.67l3.04,5.54h-1.74l-2.99-5.54h1.69Z"/>
        <path d="M63.48,53.73c-.13-.41-.31-.77-.52-1.09-.21-.32-.47-.6-.77-.83-.3-.23-.63-.4-1-.52-.37-.12-.78-.18-1.23-.18-.73,0-1.4.19-1.99.57s-1.07.93-1.43,1.67c-.35.74-.53,1.64-.53,2.71s.18,1.97.54,2.71c.36.74.84,1.29,1.45,1.67s1.3.57,2.06.57c.71,0,1.33-.15,1.87-.46.54-.3.96-.73,1.27-1.29.3-.56.46-1.21.46-1.97l.46.1h-3.71v-1.33h4.7v1.33c0,1.02-.22,1.9-.65,2.65-.43.75-1.03,1.33-1.78,1.74-.76.41-1.63.62-2.61.62-1.09,0-2.05-.26-2.88-.77s-1.47-1.25-1.93-2.19c-.46-.95-.69-2.07-.69-3.38,0-.98.13-1.85.4-2.64.26-.78.64-1.45,1.12-2,.48-.55,1.05-.97,1.71-1.27s1.38-.44,2.18-.44c.65,0,1.26.1,1.82.29.56.19,1.07.47,1.51.83.44.36.81.78,1.11,1.27.3.49.5,1.04.61,1.64h-1.54Z"/>
        <path d="M71.92,49.87v12.34h-1.49v-12.34h1.49Z"/>
        <path d="M77.68,62.21v-12.34h7.45v1.33h-5.95v4.17h5.57v1.33h-5.57v4.19h6.05v1.33h-7.54Z"/>
        <path d="M97.35,52.96c-.07-.61-.37-1.08-.88-1.42-.51-.34-1.14-.51-1.89-.51-.55,0-1.02.09-1.43.26-.41.18-.73.42-.95.73s-.34.66-.34,1.05c0,.33.08.61.24.85s.36.43.61.58c.25.15.51.28.78.38.27.1.52.18.75.24l1.25.34c.32.08.68.2,1.08.35.4.15.78.35,1.14.61.36.25.66.58.9.98.24.4.36.89.36,1.46,0,.67-.17,1.27-.52,1.81-.35.54-.85.97-1.52,1.28s-1.47.48-2.42.48c-.88,0-1.65-.14-2.29-.43-.64-.29-1.15-.68-1.52-1.19-.37-.51-.58-1.1-.62-1.78h1.54c.04.47.2.85.47,1.15.27.3.62.53,1.05.67s.88.22,1.37.22c.57,0,1.08-.09,1.54-.28s.81-.45,1.08-.78c.27-.34.4-.73.4-1.18,0-.41-.11-.74-.34-1s-.53-.47-.9-.63c-.37-.16-.78-.3-1.21-.42l-1.52-.43c-.96-.28-1.73-.67-2.29-1.19-.56-.51-.84-1.19-.84-2.02,0-.69.19-1.29.56-1.81.38-.52.88-.92,1.52-1.21s1.35-.43,2.14-.43,1.5.14,2.12.42,1.11.67,1.47,1.16c.36.49.56,1.05.58,1.67h-1.45Z"/>
        <path d="M103.13,49.87h1.71l3.42,5.76h.14l3.42-5.76h1.71l-4.46,7.26v5.09h-1.49v-5.09l-4.46-7.26Z"/>
        <path d="M125,52.96c-.07-.61-.37-1.08-.88-1.42-.51-.34-1.14-.51-1.89-.51-.55,0-1.02.09-1.43.26-.41.18-.73.42-.95.73s-.34.66-.34,1.05c0,.33.08.61.24.85s.36.43.61.58c.25.15.51.28.78.38.27.1.52.18.75.24l1.25.34c.32.08.68.2,1.08.35.4.15.78.35,1.14.61.36.25.66.58.9.98.24.4.36.89.36,1.46,0,.67-.17,1.27-.52,1.81-.35.54-.85.97-1.52,1.28s-1.47.48-2.42.48c-.88,0-1.65-.14-2.29-.43-.64-.29-1.15-.68-1.52-1.19-.37-.51-.58-1.1-.62-1.78h1.54c.04.47.2.85.47,1.15.27.3.62.53,1.05.67s.88.22,1.37.22c.57,0,1.08-.09,1.54-.28s.81-.45,1.08-.78c.27-.34.4-.73.4-1.18,0-.41-.11-.74-.34-1s-.53-.47-.9-.63c-.37-.16-.78-.3-1.21-.42l-1.52-.43c-.96-.28-1.73-.67-2.29-1.19-.56-.51-.84-1.19-.84-2.02,0-.69.19-1.29.56-1.81.38-.52.88-.92,1.52-1.21s1.35-.43,2.14-.43,1.5.14,2.12.42,1.11.67,1.47,1.16c.36.49.56,1.05.58,1.67h-1.45Z"/>
        <path d="M131.17,51.2v-1.33h9.26v1.33h-3.88v11.02h-1.49v-11.02h-3.88Z"/>
        <path d="M145.51,62.21v-12.34h7.45v1.33h-5.95v4.17h5.57v1.33h-5.57v4.19h6.05v1.33h-7.54Z"/>
        <path d="M158.43,49.87h1.78l4.19,10.25h.14l4.19-10.25h1.78v12.34h-1.4v-9.38h-.12l-3.86,9.38h-1.35l-3.86-9.38h-.12v9.38h-1.4v-12.34Z"/>
        <path d="M176.29,62.21v-12.34h7.45v1.33h-5.95v4.17h5.57v1.33h-5.57v4.19h6.05v1.33h-7.54Z"/>
      </g>
      <rect class="cls-2" x="8.95" y="16.96" width="11.35" height="4.12"/>
      <rect class="cls-2" x="8.95" y="15.37" width="11.35" height="7.3"/>
    </g>
  </g>
</svg>